<svg width="512" height="512" viewBox="0 0 512 512" fill="none" xmlns="http://www.w3.org/2000/svg">
<rect width="512" height="512" fill="#F5F5F5"/>
<g clip-path="url(#clip0_0_1)">
<path d="M428.64 77H372.32V69C372.32 64.7565 370.634 60.6869 367.634 57.6863C364.633 54.6857 360.563 53 356.32 53C352.077 53 348.007 54.6857 345.006 57.6863C342.006 60.6869 340.32 64.7565 340.32 69V77H171.68V69C171.68 64.7565 169.994 60.6869 166.994 57.6863C163.993 54.6857 159.923 53 155.68 53C151.437 53 147.367 54.6857 144.366 57.6863C141.366 60.6869 139.68 64.7565 139.68 69V77H83.36C65.508 77.0423 48.3993 84.1527 35.776 96.776C23.1527 109.399 16.0423 126.508 16 144.36V425C16.0423 442.852 23.1527 459.961 35.776 472.584C48.3993 485.207 65.508 492.318 83.36 492.36H428.64C446.492 492.318 463.601 485.207 476.224 472.584C488.847 459.961 495.958 442.852 496 425V144.36C495.958 126.508 488.847 109.399 476.224 96.776C463.601 84.1527 446.492 77.0423 428.64 77ZM83.36 109H139.68V117C139.68 121.243 141.366 125.313 144.366 128.314C147.367 131.314 151.437 133 155.68 133C159.923 133 163.993 131.314 166.994 128.314C169.994 125.313 171.68 121.243 171.68 117V109H340.32V117C340.32 121.243 342.006 125.313 345.006 128.314C348.007 131.314 352.077 133 356.32 133C360.563 133 364.633 131.314 367.634 128.314C370.634 125.313 372.32 121.243 372.32 117V109H428.64C438.018 109 447.012 112.725 453.643 119.357C460.275 125.988 464 134.982 464 144.36V182.28H48V144.36C48 134.982 51.7254 125.988 58.3567 119.357C64.988 112.725 73.9819 109 83.36 109ZM428.64 461H83.36C78.6621 461.001 74.0112 460.065 69.6788 458.249C65.3465 456.432 61.4197 453.77 58.1277 450.418C54.8357 447.066 52.2446 443.093 50.5057 438.728C48.7668 434.364 47.915 429.697 48 425V214.28H464V425C464.085 429.697 463.233 434.364 461.494 438.728C459.755 443.093 457.164 447.066 453.872 450.418C450.58 453.77 446.653 456.432 442.321 458.249C437.989 460.065 433.338 461.001 428.64 461Z" fill="black"/>
</g>
<defs>
<clipPath id="clip0_0_1">
<rect width="512" height="512" fill="white"/>
</clipPath>
</defs>
</svg>
